<?xml version="1.0" encoding="UTF-8"?>
<svg id="Layer_1" data-name="Layer 1" xmlns="http://www.w3.org/2000/svg" viewBox="0 0 408.88 408.9">
  <path d="M201.28,408.9c-35.85-20.76-71.7-41.52-107.54-62.27-19.78-11.45-39.5-23.02-59.39-34.3-6.11-3.47-8.8-8.09-8.78-15.16,.14-61.73,.14-123.47,0-185.2-.02-7.24,2.78-11.83,9.01-15.42C88.24,65.64,141.83,34.59,195.34,3.41c6.36-3.71,11.81-3.77,18.19-.05,53.5,31.2,107.09,62.26,160.75,93.17,6.41,3.69,9.08,8.46,9.06,15.81-.15,61.6-.16,123.2,0,184.8,.02,7.11-2.69,11.65-8.76,15.15-54,31.14-107.91,62.43-161.84,93.67-1.69,.98-3.39,1.96-5.08,2.94h-6.39ZM347.14,108.71c-1.75-1.08-2.85-1.78-3.98-2.44-44.84-25.99-89.69-51.95-134.47-78.04-3-1.75-5.15-1.92-8.25-.11-44.89,26.17-89.87,52.18-134.82,78.24-1.1,.64-2.14,1.37-3.56,2.28,1.45,.92,2.51,1.65,3.63,2.3,45.05,25.89,90.12,51.74,135.11,77.73,2.85,1.65,4.82,1.47,7.55-.11,38.77-22.4,77.61-44.7,116.44-67.01,7.24-4.16,14.48-8.32,22.37-12.84ZM49.69,279.45c1.79-.95,3.07-1.6,4.31-2.31,30.44-17.44,60.88-34.9,91.32-52.34,2.07-1.19,4.12-2.46,6.29-3.45,5.66-2.58,12.23-.47,15.26,4.77,3.12,5.39,1.79,11.86-3.29,15.63-1.27,.95-2.69,1.71-4.07,2.51-31.12,17.86-62.25,35.71-93.37,53.57-1.3,.75-2.57,1.56-4.29,2.6,43.82,25.39,86.99,50.41,130.51,75.63,.08-1.36,.15-2.02,.15-2.67,0-52.95-.01-105.9,.07-158.86,0-2.54-1.01-3.7-3.06-4.88-45.44-26.03-90.84-52.12-136.25-78.19-1.05-.6-2.16-1.12-3.57-1.85v149.83Zm166.76,96.69c43.81-25.38,87.02-50.42,130.7-75.73-1.98-1.17-3.21-1.93-4.47-2.65-31.01-17.79-62.01-35.58-93.01-53.37-1.61-.92-3.26-1.83-4.72-2.97-4.14-3.25-5.54-8.37-3.79-13.25,1.76-4.89,6.09-8.18,11.3-7.73,2.78,.24,5.69,1.32,8.15,2.71,31.53,17.94,62.99,36.01,94.47,54.04,1.23,.7,2.5,1.32,3.96,2.08V129.72c-1.3,.66-2.26,1.1-3.16,1.62-45.52,26.14-91.02,52.32-136.58,78.38-2.37,1.36-2.9,2.88-2.89,5.37,.06,52.28,.05,104.56,.05,156.84v4.2Z"/>
  <path d="M9.66,408.9C2.52,406.16-.16,400.96,0,393.37c.32-14.88,0-29.77,.14-44.66,.09-9.3,8.76-15.17,16.78-11.48,4.81,2.21,7.12,6.18,7.13,11.47,0,10.5,0,21,0,31.5,0,1.42,0,2.85,0,4.69,9.02,0,17.62,0,26.22,0,3.06,0,6.11-.04,9.17,.01,6.45,.11,11.21,3.91,12.33,9.75,1.09,5.71-2.08,11-8.07,13.49-.47,.2-.9,.5-1.35,.76H9.66Z"/>
  <path d="M346.6,408.9c-.7-.33-1.4-.67-2.11-.99-5.36-2.42-8.34-7.81-7.32-13.23,1.08-5.71,5.77-9.69,11.89-9.75,10.35-.1,20.71-.04,31.06-.04,1.43,0,2.87,0,4.78,0,0-6.27,0-12.2,0-18.12,0-5.84-.04-11.68,.01-17.52,.06-6.81,3.72-11.67,9.6-12.86,5.71-1.16,10.6,1.66,13.62,7.83,.16,.32,.49,.54,.75,.81v54.29c-1.67,4.72-4.93,7.84-9.58,9.58h-52.7Z"/>
  <path d="M408.88,63.18c-1.72,4.18-4.05,7.69-8.77,9.03-7.69,2.19-15.06-3.3-15.16-11.7-.14-11.94-.04-23.89-.04-36.46-1.71,0-3.23,0-4.76,0-9.96,0-19.92,.03-29.88-.01-7.84-.04-13.16-4.84-13.24-11.82-.08-7.15,5.3-12.09,13.35-12.11,14.34-.04,28.69,.22,43.03-.11,7.58-.17,12.86,2.37,15.47,9.67V63.18Z"/>
  <path d="M24.04,24.05c0,12.63,.14,24.6-.04,36.56-.14,9.52-9.81,15.1-17.81,10.47C2.17,68.75,.16,65.12,.14,60.54,.08,44.45,.02,28.36,.16,12.27,.22,5.18,5.23,.21,12.3,.15c15.82-.12,31.64-.12,47.47,0,7.11,.05,12.24,5.36,12.16,12.08-.08,6.55-5.15,11.68-12.07,11.77-10.37,.14-20.74,.04-31.11,.05-1.43,0-2.85,0-4.7,0Z"/>
</svg>