<svg xmlns="http://www.w3.org/2000/svg" width="17.175" height="34" viewBox="0 0 17.175 34">
  <g id="fb" transform="translate(-76.703)">
    <path id="XMLID_835_" d="M77.251,18.108h3.727V33.452a.548.548,0,0,0,.548.548h6.319a.548.548,0,0,0,.548-.548V18.181h4.284a.548.548,0,0,0,.545-.486l.651-5.649a.548.548,0,0,0-.545-.611H88.395V7.894c0-1.067.575-1.609,1.708-1.609H93.33a.548.548,0,0,0,.548-.548V.552A.548.548,0,0,0,93.33,0H88.883c-.031,0-.1,0-.2,0a8.521,8.521,0,0,0-5.572,2.1,5.843,5.843,0,0,0-1.943,5.194v4.141H77.251a.548.548,0,0,0-.548.548V17.56A.548.548,0,0,0,77.251,18.108Z" fill="#ea337f"/>
  </g>
</svg>
