<svg xmlns="http://www.w3.org/2000/svg" width="42" height="35" viewBox="0 0 42 35">
  <path id="tl" d="M41.419,7.309S45.3,5.794,44.981,9.473c-.108,1.515-1.079,6.818-1.835,12.553l-2.59,16.99S40.34,41.5,38.4,41.938,33.541,40.423,33,39.99c-.432-.325-8.094-5.194-10.792-7.575-.755-.649-1.619-1.948.108-3.463L33.649,18.131c1.3-1.3,2.59-4.329-2.806-.649L15.733,27.762s-1.727,1.082-4.964.108L3.753,25.705s-2.59-1.623,1.835-3.247C16.381,17.373,29.656,12.179,41.419,7.309Z" transform="translate(-3 -7)" fill="#ea337f"/>
</svg>
