<?xml version="1.0" encoding="utf-8"?>
<!-- Generator: Adobe Illustrator 26.2.1, SVG Export Plug-In . SVG Version: 6.00 Build 0)  -->
<svg version="1.1" id="Layer_1" xmlns="http://www.w3.org/2000/svg" xmlns:xlink="http://www.w3.org/1999/xlink" x="0px" y="0px"
	 viewBox="0 0 571.5 171.7" style="enable-background:new 0 0 571.5 171.7;" xml:space="preserve">
<style type="text/css">
	.st0{fill:#FFFFFF;}
	.st1{fill:#EDE811;}
</style>
<g id="Group_19" transform="translate(-680 -1988)">
	<path id="Path_46" class="st0" d="M1071.9,2091.3h6.2v7.8h-6.2V2091.3z"/>
	<path id="Path_47" class="st0" d="M1105.6,2061v3.9h-7.8v25.7c-0.1,1.2,0.2,2.4,0.6,3.6c0.4,0.9,1.5,1.3,3.1,1.4
		c1.3,0,2.7-0.1,4-0.2v3.9c-0.7,0-1.4,0-2.1,0.1c-0.7,0.1-1.4,0.1-2.1,0.1c-3.1,0-5.3-0.6-6.5-1.8c-1.2-1.2-1.8-3.4-1.8-6.7v-26.1
		h-6.7v-3.9h6.7v-11.4h4.7v11.4H1105.6z"/>
	<path id="Path_48" class="st0" d="M1117.4,2061v9h0.2c1-2.9,3-5.4,5.5-7.2c2.6-1.7,5.8-2.6,9-2.3v4.7c-2-0.1-3.9,0.2-5.8,0.8
		c-1.7,0.6-3.2,1.6-4.5,2.9c-1.3,1.3-2.3,2.7-2.9,4.4c-0.7,1.8-1,3.7-1,5.6v20.3h-4.7V2061H1117.4z"/>
	<path id="Path_49" class="st0" d="M1138.1,2066.9c0.7-1.6,1.8-2.9,3.2-4c1.4-1.1,3-1.9,4.8-2.3c2-0.5,4-0.8,6.1-0.7
		c1.7,0,3.4,0.2,5,0.5c1.6,0.3,3.1,0.9,4.5,1.8c1.4,0.9,2.5,2.2,3.3,3.7c0.9,2,1.3,4.1,1.2,6.2v20.2c0,1.9,0.9,2.8,2.7,2.8
		c0.5,0,1-0.1,1.5-0.3v3.9c-0.5,0.1-1,0.2-1.4,0.2c-0.5,0.1-1.1,0.1-1.6,0.1c-1,0-1.9-0.1-2.8-0.5c-0.7-0.3-1.3-0.8-1.7-1.4
		c-0.4-0.6-0.7-1.4-0.8-2.1c-0.1-0.9-0.2-1.8-0.2-2.7h-0.2c-0.8,1.1-1.6,2.2-2.5,3.3c-0.8,0.9-1.8,1.8-2.9,2.4
		c-1.1,0.7-2.3,1.2-3.6,1.5c-1.6,0.4-3.2,0.5-4.8,0.5c-1.7,0-3.4-0.2-5-0.6c-1.5-0.4-2.9-1.1-4.1-2c-1.2-0.9-2.1-2.1-2.7-3.5
		c-0.7-1.6-1-3.3-1-5c-0.1-2.2,0.5-4.4,1.8-6.2c1.2-1.5,2.9-2.7,4.7-3.4c2.1-0.8,4.3-1.4,6.6-1.7c2.4-0.3,4.9-0.6,7.4-0.9
		c0.9-0.1,1.7-0.2,2.6-0.4c0.7-0.1,1.3-0.4,1.8-0.8c0.5-0.4,0.9-0.9,1.2-1.5c0.3-0.8,0.4-1.7,0.4-2.5c0.1-1.3-0.2-2.7-0.8-3.9
		c-0.5-1-1.2-1.8-2.1-2.4c-1-0.6-2-1-3.2-1.2c-1.3-0.2-2.6-0.3-3.9-0.3c-2.6-0.1-5.1,0.6-7.2,2.1c-1.9,1.4-2.9,3.7-3,6.8h-4.7
		C1136.7,2070.7,1137.2,2068.7,1138.1,2066.9L1138.1,2066.9z M1161.4,2078.3c-0.4,0.6-1,1-1.7,1.2c-0.7,0.2-1.5,0.4-2.2,0.5
		c-2,0.3-4,0.7-6.1,0.9c-1.9,0.2-3.9,0.6-5.7,1.2c-1.6,0.5-3,1.2-4.2,2.3c-1.2,1.1-1.8,2.7-1.7,4.3c0,1.1,0.2,2.2,0.7,3.1
		c0.5,0.9,1.1,1.7,1.9,2.4c0.8,0.7,1.7,1.2,2.7,1.5c1,0.3,2.1,0.5,3.2,0.5c1.7,0,3.5-0.3,5.1-0.8c1.6-0.5,3-1.3,4.2-2.4
		c2.6-2.2,4.1-5.4,4-8.8v-6.1H1161.4z"/>
	<path id="Path_50" class="st0" d="M1205.5,2099.2v-7.2h-0.2c-0.5,1.3-1.2,2.4-2.2,3.4c-1,1-2.1,1.9-3.3,2.6c-1.3,0.7-2.6,1.3-4,1.7
		c-1.4,0.4-2.8,0.6-4.2,0.6c-2.6,0.1-5.2-0.5-7.6-1.6c-2.1-1-3.9-2.5-5.4-4.4c-1.5-1.9-2.5-4.1-3.2-6.4c-1.4-5.1-1.4-10.4,0-15.4
		c0.6-2.3,1.7-4.5,3.2-6.4c1.4-1.8,3.3-3.4,5.4-4.4c2.4-1.1,5-1.7,7.6-1.6c1.4,0,2.8,0.2,4.2,0.5c1.3,0.3,2.6,0.9,3.8,1.6
		c1.2,0.7,2.2,1.6,3.2,2.6c0.9,1.1,1.6,2.3,2.1,3.6h0.2v-21.9h4.7v52.8H1205.5z M1180,2086c0.4,1.9,1.2,3.6,2.2,5.2
		c1,1.5,2.3,2.8,3.9,3.7c1.7,1,3.7,1.5,5.7,1.4c2.2,0.1,4.3-0.4,6.2-1.4c1.6-0.9,3.1-2.2,4.1-3.7c1.1-1.6,1.8-3.3,2.2-5.2
		c0.9-3.9,0.9-7.9,0-11.8c-0.4-1.9-1.2-3.7-2.3-5.2c-1.1-1.5-2.5-2.8-4.1-3.7c-1.9-1-4.1-1.5-6.2-1.4c-2-0.1-4,0.4-5.7,1.4
		c-1.6,0.9-2.9,2.2-3.9,3.7c-1,1.6-1.8,3.4-2.2,5.2C1179.1,2078.1,1179.1,2082.1,1180,2086z"/>
	<path id="Path_51" class="st0" d="M1222.8,2086.6c0.4,1.7,1.2,3.4,2.3,4.9c1,1.4,2.4,2.6,3.9,3.5c1.7,1,3.7,1.5,5.7,1.4
		c3.4,0,6.1-0.9,8-2.7c2-1.9,3.4-4.4,4-7.1h4.7c-0.7,3.8-2.6,7.3-5.4,10c-2.7,2.4-6.4,3.6-11.2,3.6c-2.7,0.1-5.4-0.5-7.8-1.6
		c-2.1-1-4-2.5-5.4-4.4c-1.4-1.9-2.5-4.1-3.1-6.4c-0.7-2.5-1-5.1-1-7.7c0-2.5,0.3-5,1-7.4c0.6-2.3,1.7-4.5,3.1-6.5
		c1.4-1.9,3.2-3.5,5.4-4.6c2.4-1.2,5.1-1.8,7.8-1.7c5.2-0.2,10.2,2.3,13.1,6.7c1.4,2.1,2.4,4.4,2.9,6.9c0.6,2.6,0.8,5.2,0.7,7.9
		h-29.4C1222.1,2083.1,1222.4,2084.8,1222.8,2086.6L1222.8,2086.6z M1245.9,2072.3c-0.5-1.6-1.4-3-2.4-4.3c-4-4.9-11.2-5.6-16.1-1.6
		c-0.6,0.5-1.1,1-1.6,1.6c-1.1,1.3-1.9,2.8-2.5,4.4c-0.6,1.6-1,3.3-1.2,5.1h24.7C1246.8,2075.7,1246.5,2074,1245.9,2072.3z"/>
	<path id="Path_52" class="st0" d="M1041.6,2021.7l8.2-0.3c0,0,7.3-0.6,7.3-8.7v-6.4h-9.2l15.8-18.3l15.9,18.3h-8.8
		c1.7,30.1-20.9,28-20.9,28h-8.4L1041.6,2021.7z"/>
	<path id="Path_53" class="st0" d="M837.1,2021.2h13.3v43.5c0,24.1-11.9,35.5-42.1,35.5c-30,0-42-11.4-42-35.5v-43.5h14v43.5
		c0,15.7,7,22.1,28.4,22.1c21.4,0,28.4-6.4,28.4-22.1V2021.2z"/>
	<path id="Path_54" class="st0" d="M959.6,2099.6l-14.9-54.8l-22.1,50.7c-1.5,3.3-3.6,5.1-7,5.1s-5.6-1.8-7-5.1l-22-50.7l-14.9,54.8
		h-13.4l20-73.3c1-3.8,3.1-5.6,6.8-5.6c3,0,5.7,1.8,6.9,4.6l24,55.1l24-55.1c1-2.8,3.6-4.6,6.5-4.6c3.3,0,5.5,1.8,6.5,5.6l19.9,73.3
		H959.6z"/>
	<path id="Path_55" class="st0" d="M680,2099.2v-13.6h28.5c18.2,0,25.6-6.8,25.6-21.9v-42.5h13.6v42.5c0,24.1-12.1,35.5-39.2,35.5
		H680z"/>
	<path id="Path_56" class="st0" d="M998.7,2021.2h-13.5v77.9h13.5v-64.3h0L998.7,2021.2z"/>
	<path id="Path_57" class="st0" d="M1040,2021.2h-13.3c-3.6,0-6.6,3-6.6,6.6v0.4c0,3.6,3,6.6,6.6,6.6h13.3c9.5,0,15.2,5.7,15.2,14.7
		c0,8.8-5.7,14.8-15.2,14.8h-42.9c-3.6,0-2.9,3-2.9,6.6l0,0c0,3.6-0.7,6.6,2.9,6.6h42.9c18,0,28.5-11.6,28.5-28.4
		C1068.5,2032,1058,2021.2,1040,2021.2z"/>
	<g id="Group_18" transform="translate(-251.36)">
		<path id="Path_69" class="st1" d="M931.4,2149.3c0-5.1,3.3-10.2,10.1-10.2c2,0.1,3.9,0.7,5.5,1.7c0.2,0.1,0.2,0.3,0.1,0.5
			c0,0,0,0,0,0l-1.5,2.1c-0.1,0.2-0.3,0.2-0.4,0.1c0,0-0.1,0-0.1-0.1c-1-0.8-2.3-1.2-3.6-1.2c-8.8,0-8.8,13.7,0,13.7
			c1.1,0,3.3-0.2,3.3-1.7v-0.3c0-0.2,0.1-0.3,0.3-0.4c0,0,0,0,0.1,0h2.6c0.2,0,0.3,0.1,0.4,0.3c0,0,0,0,0,0.1v2.6
			c0,0.2-0.1,0.4-0.3,0.6c-1.9,1.3-4.1,2.1-6.4,2.1C934.7,2159.5,931.4,2154.4,931.4,2149.3z M940.1,2151.2v-2.4
			c0-0.2,0.1-0.4,0.3-0.4c0,0,0,0,0,0h7.2c0.2,0,0.4,0.1,0.4,0.3c0,0,0,0,0,0v2.4c0,0.2-0.1,0.3-0.3,0.4c0,0,0,0-0.1,0h-7.2
			C940.3,2151.6,940.1,2151.4,940.1,2151.2C940.1,2151.2,940.1,2151.2,940.1,2151.2z"/>
		<path id="Path_70" class="st1" d="M957.3,2158.7v-19c0-0.1,0-0.1,0.1-0.1c0,0,0,0,0,0h6.8c6.7,0.6,7.5,8.3,2.7,10.9
			c-0.3,0.1-0.5,0.4-0.4,0.8c0,0.1,0.1,0.1,0.1,0.2l5.1,7.4c0.1,0.2,0,0.3-0.2,0.3h-3.3c-0.2,0-0.4-0.1-0.5-0.3l-5-7.2
			c-0.1-0.2-0.2-0.4-0.2-0.6v-2.5c0-0.2,0.1-0.3,0.3-0.4c0,0,0,0,0.1,0h0.5c4.2,0,4.2-5.4,0-5.4h-2c-0.4,0-0.8,0.3-0.8,0.7
			c0,0,0,0.1,0,0.1v15.1c0,0.2-0.1,0.4-0.3,0.4c0,0,0,0-0.1,0h-2.6c-0.2,0-0.4-0.1-0.4-0.3C957.3,2158.8,957.3,2158.7,957.3,2158.7
			L957.3,2158.7z"/>
		<path id="Path_71" class="st1" d="M990,2139.1c5.6-0.1,10.2,4.4,10.3,10s-4.4,10.2-10,10.3c-5.6,0.1-10.2-4.4-10.3-10
			c0,0,0-0.1,0-0.1c-0.3-5.4,3.9-9.9,9.2-10.2C989.5,2139.1,989.8,2139.1,990,2139.1z M990,2156.1c3.8,0,6.9-3,6.9-6.8
			c0-3.8-3-6.9-6.8-6.9s-6.9,3-6.9,6.8c0,0,0,0,0,0.1c-0.2,3.6,2.6,6.7,6.2,6.8C989.6,2156.1,989.8,2156.2,990,2156.1L990,2156.1z
			 M987.8,2149l2-2c0.1-0.1,0.3-0.1,0.5,0c0,0,0,0,0,0l2,2c0.1,0.1,0.1,0.3,0,0.5c0,0,0,0,0,0l-2,2c-0.1,0.1-0.3,0.2-0.5,0
			c0,0,0,0,0,0l-2-2C987.6,2149.5,987.6,2149.3,987.8,2149C987.7,2149.1,987.7,2149.1,987.8,2149L987.8,2149z"/>
		<path id="Path_72" class="st1" d="M1008.4,2139.6h2.8c0.2,0,0.4,0.1,0.5,0.3l4.6,11.1c0.1,0.2,0.2,0.3,0.3,0.3s0.2-0.1,0.3-0.3
			l4-9.1c0.1-0.2,0.2-0.3,0.4-0.3c0.2,0,0.3,0.1,0.4,0.3l6,13.5c0.1,0.2,0.1,0.5,0,0.7l-1.2,2.9c-0.1,0.1-0.2,0.2-0.4,0.2
			c-0.2,0-0.3-0.1-0.4-0.2l-4.1-9.5c-0.1-0.2-0.2-0.3-0.3-0.3s-0.2,0.1-0.3,0.3l-4.2,9.5c-0.1,0.1-0.2,0.2-0.4,0.2
			c-0.2,0-0.3-0.1-0.4-0.2l-8-19.2C1008.1,2139.7,1008.1,2139.6,1008.4,2139.6z M1027.3,2148.9l3.8-9c0.1-0.2,0.3-0.3,0.5-0.3h2.8
			c0.2,0,0.3,0.1,0.2,0.3l-5.4,13.1c-0.1,0.2-0.2,0.2-0.3,0l-1.6-3.4C1027.2,2149.3,1027.2,2149.1,1027.3,2148.9L1027.3,2148.9z"/>
		<path id="Path_73" class="st1" d="M1054.4,2139.6h2.8c0.2,0,0.4,0.1,0.5,0.3l4.6,11.1c0.1,0.2,0.2,0.3,0.3,0.3s0.2-0.1,0.3-0.3
			l4-9.1c0.1-0.2,0.2-0.3,0.4-0.3c0.2,0,0.3,0.1,0.4,0.3l4,9.1c0.1,0.2,0.2,0.3,0.3,0.3s0.2-0.1,0.3-0.3l4.6-11.1
			c0.1-0.2,0.3-0.3,0.5-0.3h2.8c0.2,0,0.3,0.1,0.2,0.3l-8,19.2c-0.1,0.1-0.2,0.2-0.4,0.2c-0.2,0-0.3-0.1-0.4-0.2l-4.1-9.5
			c-0.1-0.2-0.2-0.3-0.3-0.3s-0.2,0.1-0.3,0.3l-4.2,9.5c-0.1,0.1-0.2,0.2-0.4,0.2c-0.2,0-0.3-0.1-0.4-0.2l-8-19.2
			C1054.1,2139.7,1054.2,2139.6,1054.4,2139.6z"/>
		<path id="Path_74" class="st1" d="M1089.5,2139.6h2.6c0.2,0,0.3,0.1,0.4,0.3c0,0,0,0,0,0.1v18.8c0,0.2-0.1,0.4-0.3,0.4
			c0,0,0,0,0,0h-2.6c-0.2,0-0.4-0.1-0.4-0.3c0,0,0,0,0,0v-18.8C1089.1,2139.8,1089.3,2139.6,1089.5,2139.6
			C1089.5,2139.6,1089.5,2139.6,1089.5,2139.6z"/>
		<path id="Path_75" class="st1" d="M1100.9,2142.3v-2.4c0-0.2,0.1-0.3,0.3-0.4c0,0,0,0,0.1,0h15.3c0.2,0,0.3,0.1,0.4,0.3
			c0,0,0,0,0,0.1v2.4c0,0.2-0.1,0.3-0.3,0.4c0,0,0,0-0.1,0h-5.2c-0.4,0-0.8,0.3-0.8,0.7c0,0,0,0.1,0,0.1v15.2c0,0.2-0.1,0.4-0.3,0.4
			c0,0,0,0,0,0h-2.6c-0.2,0-0.4-0.2-0.4-0.4c0,0,0,0,0,0v-15.2c0-0.4-0.3-0.8-0.7-0.8c0,0-0.1,0-0.1,0h-5.2
			C1101.1,2142.7,1100.9,2142.6,1100.9,2142.3C1100.9,2142.4,1100.9,2142.4,1100.9,2142.3L1100.9,2142.3z"/>
		<path id="Path_76" class="st1" d="M1125.7,2139.6h2.6c0.2,0,0.3,0.1,0.4,0.3c0,0,0,0,0,0.1v7c0,0.4,0.3,0.8,0.7,0.8
			c0,0,0.1,0,0.1,0h7.7c0.4,0,0.7-0.3,0.8-0.7c0,0,0-0.1,0-0.1v-7c0-0.2,0.1-0.4,0.3-0.4c0,0,0,0,0,0h2.6c0.2,0,0.3,0.1,0.4,0.3
			c0,0,0,0,0,0.1v18.8c0,0.2-0.1,0.4-0.3,0.4c0,0,0,0,0,0h-2.6c-0.2,0-0.4-0.2-0.4-0.4c0,0,0,0,0,0v-7c0-0.4-0.3-0.8-0.7-0.8
			c0,0-0.1,0-0.1,0h-7.7c-0.4,0-0.8,0.3-0.8,0.7c0,0,0,0.1,0,0.1v7c0,0.2-0.1,0.4-0.3,0.4c0,0,0,0,0,0h-2.6c-0.2,0-0.4-0.1-0.4-0.3
			c0,0,0,0,0,0v-18.8C1125.3,2139.8,1125.5,2139.6,1125.7,2139.6C1125.7,2139.6,1125.7,2139.6,1125.7,2139.6z"/>
		<path id="Path_77" class="st1" d="M1161.9,2158.7l8.8-19.2c0.1-0.1,0.2-0.2,0.4-0.2c0.2,0,0.3,0.1,0.4,0.2l8.8,19.2
			c0.1,0.2,0,0.3-0.2,0.3h-2.7c-0.2,0-0.4-0.1-0.5-0.3l-0.8-1.7c-0.2-0.4-0.6-0.7-1.1-0.7h-7.6c-0.5,0-0.9,0.3-1.1,0.7l-0.8,1.7
			c-0.1,0.2-0.3,0.3-0.5,0.3h-2.7C1161.9,2159.1,1161.8,2158.9,1161.9,2158.7z M1168.7,2153.2h4.8c0.5,0,0.6-0.3,0.4-0.7l-2.5-5.5
			c-0.1-0.2-0.2-0.3-0.3-0.3s-0.2,0.1-0.3,0.3l-2.5,5.5C1168,2152.9,1168.2,2153.2,1168.7,2153.2z"/>
		<path id="Path_78" class="st1" d="M1184.8,2142.3v-2.4c0-0.2,0.1-0.3,0.3-0.4c0,0,0,0,0.1,0h15.3c0.2,0,0.3,0.1,0.4,0.3
			c0,0,0,0,0,0.1v2.4c0,0.2-0.1,0.3-0.3,0.4c0,0,0,0-0.1,0h-5.2c-0.4,0-0.8,0.3-0.8,0.7c0,0,0,0.1,0,0.1v15.2c0,0.2-0.1,0.4-0.3,0.4
			c0,0,0,0-0.1,0h-2.6c-0.2,0-0.4-0.2-0.4-0.4c0,0,0,0,0,0v-15.2c0-0.4-0.3-0.8-0.7-0.8c0,0-0.1,0-0.1,0h-5.2
			C1185,2142.7,1184.8,2142.6,1184.8,2142.3C1184.8,2142.4,1184.8,2142.4,1184.8,2142.3L1184.8,2142.3z"/>
		<path id="Path_79" class="st1" d="M1208.1,2142.3v-2.4c0-0.2,0.1-0.4,0.3-0.4c0,0,0,0,0,0h15.3c0.2,0,0.3,0.1,0.4,0.3
			c0,0,0,0,0,0.1v2.4c0,0.2-0.1,0.3-0.3,0.4c0,0,0,0-0.1,0h-5.2c-0.4,0-0.8,0.3-0.8,0.7c0,0,0,0.1,0,0.1v15.2c0,0.2-0.1,0.4-0.3,0.4
			c0,0,0,0-0.1,0h-2.6c-0.2,0-0.4-0.1-0.4-0.3c0,0,0,0,0,0v-15.2c0-0.4-0.3-0.7-0.7-0.8c0,0-0.1,0-0.1,0h-5.2
			C1208.3,2142.7,1208.2,2142.6,1208.1,2142.3C1208.1,2142.4,1208.1,2142.4,1208.1,2142.3L1208.1,2142.3z"/>
		<path id="Path_80" class="st1" d="M1233,2139.6h2.6c0.2,0,0.3,0.1,0.4,0.3c0,0,0,0,0,0.1v18.8c0,0.2-0.1,0.4-0.3,0.4c0,0,0,0,0,0
			h-2.6c-0.2,0-0.4-0.1-0.4-0.3c0,0,0,0,0,0v-18.8C1232.6,2139.8,1232.7,2139.6,1233,2139.6
			C1232.9,2139.6,1232.9,2139.6,1233,2139.6z"/>
		<path id="Path_81" class="st1" d="M1244.3,2142.3v-2.4c0-0.2,0.1-0.4,0.3-0.4c0,0,0,0,0,0h15.3c0.2,0,0.3,0.1,0.4,0.3
			c0,0,0,0,0,0.1v2.4c0,0.2-0.1,0.3-0.3,0.4c0,0,0,0-0.1,0h-5.2c-0.4,0-0.8,0.3-0.8,0.7c0,0,0,0.1,0,0.1v15.2c0,0.2-0.1,0.4-0.3,0.4
			c0,0,0,0-0.1,0h-2.6c-0.2,0-0.4-0.1-0.4-0.3c0,0,0,0,0,0v-15.2c0-0.4-0.3-0.7-0.7-0.8c0,0-0.1,0-0.1,0h-5.2
			C1244.5,2142.7,1244.3,2142.6,1244.3,2142.3C1244.3,2142.4,1244.3,2142.4,1244.3,2142.3L1244.3,2142.3z"/>
		<path id="Path_82" class="st1" d="M1276.4,2159.7c-4.2,0.1-7.8-3.2-7.9-7.5c0-0.2,0-0.4,0-0.6v-11.7c0-0.2,0.1-0.3,0.3-0.4
			c0,0,0,0,0.1,0h2.6c0.2,0,0.3,0.1,0.4,0.3c0,0,0,0,0,0.1v11.7c0.1,2.5,2.3,4.4,4.8,4.3c2.3-0.1,4.2-2,4.3-4.3v-11.7
			c0-0.2,0.1-0.3,0.3-0.4c0,0,0,0,0.1,0h2.6c0.2,0,0.4,0.1,0.4,0.3c0,0,0,0,0,0v11.7c0.2,4.2-3,7.8-7.2,8.1
			C1276.8,2159.7,1276.6,2159.7,1276.4,2159.7L1276.4,2159.7z"/>
		<path id="Path_83" class="st1" d="M1293.9,2139.6h6.2c5.4,0.3,9.4,4.9,9.1,10.3c-0.3,4.9-4.2,8.8-9.1,9.1h-6.2
			c-0.2,0-0.4-0.1-0.4-0.3c0,0,0,0,0,0v-18.7C1293.5,2139.8,1293.6,2139.6,1293.9,2139.6C1293.8,2139.6,1293.8,2139.6,1293.9,2139.6
			z M1296.8,2155.1c0,0.4,0.3,0.7,0.7,0.8c0,0,0.1,0,0.1,0h2.3c8-0.8,7.8-13.2-0.8-13.2h-1.5c-0.4,0-0.7,0.3-0.8,0.7
			c0,0,0,0.1,0,0.1L1296.8,2155.1z"/>
		<path id="Path_84" class="st1" d="M1318.3,2139.9c0-0.2,0.1-0.3,0.3-0.4c0,0,0,0,0.1,0h11.9c0.2,0,0.3,0.1,0.4,0.3c0,0,0,0,0,0.1
			v2.4c0,0.2-0.1,0.3-0.3,0.4c0,0,0,0-0.1,0h-8.1c-0.4,0-0.8,0.3-0.8,0.7c0,0,0,0.1,0,0.1v3.5c0,0.4,0.3,0.8,0.7,0.8
			c0,0,0.1,0,0.1,0h6.2c0.2,0,0.3,0.1,0.4,0.3c0,0,0,0,0,0.1v2.4c0,0.2-0.1,0.3-0.3,0.4c0,0,0,0-0.1,0h-6.2c-0.4,0-0.8,0.3-0.8,0.7
			c0,0,0,0.1,0,0.1v3.5c0,0.4,0.3,0.7,0.7,0.8c0,0,0.1,0,0.1,0h8.1c0.2,0,0.4,0.1,0.4,0.3c0,0,0,0,0,0v2.4c0,0.2-0.1,0.4-0.3,0.4
			c0,0,0,0,0,0h-11.9c-0.2,0-0.4-0.1-0.4-0.3c0,0,0,0,0-0.1V2139.9z"/>
	</g>
</g>
</svg>
